<?xml version="1.0" encoding="UTF-8"?>
<svg version="1.1" xmlns="http://www.w3.org/2000/svg" width="180" height="180">
<path d="M0 0 C59.4 0 118.8 0 180 0 C180 59.4 180 118.8 180 180 C120.6 180 61.2 180 0 180 C0 120.6 0 61.2 0 0 Z " fill="#29292B" transform="translate(0,0)"/>
<path d="M0 0 C5.94 0 11.88 0 18 0 C18 21.45 18 42.9 18 65 C29.97160264 65.26144828 29.97160264 65.26144828 34.359375 61.4453125 C35.19468963 60.36725828 35.9914284 59.25836692 36.75 58.125 C37.19424316 57.53565674 37.63848633 56.94631348 38.09619141 56.33911133 C38.99907433 55.14048983 39.88761905 53.93091923 40.76074219 52.71044922 C42.52352731 50.2774168 44.44692225 47.99067651 46.375 45.6875 C47.91827605 43.79297653 49.459766 41.89699746 51 40 C52.04423454 38.71481426 53.08850794 37.4296601 54.1328125 36.14453125 C55.82117145 34.06674096 57.50918706 31.98867718 59.19604492 29.90966797 C63.04769762 25.16405282 66.90846595 20.42671438 70.84375 15.75 C72.47470251 13.66994463 73.87992851 11.66257128 75.28125 9.4375 C75.68255127 8.83510498 76.08385254 8.23270996 76.49731445 7.61206055 C77.6192963 5.91562399 78.69227683 4.18707005 79.76171875 2.45703125 C83 0 83 0 97 0 C97 21.78 97 43.56 97 66 C92.38 66.33 87.76 66.66 83 67 C79.63788163 70.36211837 77.56808704 73.10522593 75 77 C72.90789683 79.69025 70.73365539 82.31088776 68.5625 84.9375 C67.42735047 86.33118893 66.29322011 87.72570864 65.16015625 89.12109375 C61.90567163 93.11791404 58.64147686 97.10672677 55.375 101.09375 C52.97842577 104.02640004 50.58807325 106.96394238 48.20336914 109.90625 C47.07262098 111.29614482 45.93641951 112.68162175 44.79467773 114.0625 C42.27484155 117.12085698 39.8404859 120.15734425 37.66015625 123.46875 C35.5625 126.5 35.5625 126.5 31 131 C26.38 131 21.76 131 17 131 C17 109.55 17 88.1 17 66 C11.39 66 5.78 66 0 66 C0 44.22 0 22.44 0 0 Z " fill="#FD6946" transform="translate(42,25)"/>
<path d="M0 0 C5.94 0 11.88 0 18 0 C18 21.45 18 42.9 18 65 C22.29 65 26.58 65 31 65 C31 65.33 31 65.66 31 66 C26.71 66 22.42 66 18 66 C18 87.12 18 108.24 18 130 C22.29 130 26.58 130 31 130 C31 130.33 31 130.66 31 131 C26.38 131 21.76 131 17 131 C17 109.55 17 88.1 17 66 C11.39 66 5.78 66 0 66 C0 65.67 0 65.34 0 65 C5.61 65 11.22 65 17 65 C17 43.88 17 22.76 17 1 C11.39 1 5.78 1 0 1 C0 0.67 0 0.34 0 0 Z " fill="#B6533D" transform="translate(42,25)"/>
</svg>
